# xmcd
#
# Track frame offsets:
#	150
#	17818
#	50648
#	66459
#	88213
#	119068
#	145739
#	166459
#	180984
#	196821
#	217674
#	239702
#	260483
#
# Disc length: 3664 seconds
#
# Revision: 1
# Processed by: cddbd v1.5.2PL0 Copyright (c) Steve Scherf et al.
# Submitted via: audiograbber 1.83.01
#
DISCID=c20e4e0d
DTITLE=Lyle Lovett - It's Big, It's Large
DYEAR=2007
DGENRE=Country
TTITLE0=Tickle Toe
TTITLE1=I Will Rise Up, Ain't No More Cain
TTITLE2=All Downhill
TTITLE3=Don't Cry A Tear
TTITLE4=South Texas Girl
TTITLE5=This Traveling Around
TTITLE6=Up in Indiana
TTITLE7=The Alley Song
TTITLE8=No Big Deal
TTITLE9=Make It Happy
TTITLE10=Ain't No More Cane
TTITLE11=Up In Indiana (Acoustic)
TTITLE12=The Alley Song ( Acoustic)
EXTD=
EXTT0=
EXTT1=
EXTT2=
EXTT3=
EXTT4=
EXTT5=
EXTT6=
EXTT7=
EXTT8=
EXTT9=
EXTT10=
EXTT11=
EXTT12=
PLAYORDER=
